<?xml version="1.0" encoding="utf-8"?>
<!-- Generator: Adobe Illustrator 24.0.1, SVG Export Plug-In . SVG Version: 6.00 Build 0)  -->
<svg version="1.1" id="Capa_1" xmlns="http://www.w3.org/2000/svg" xmlns:xlink="http://www.w3.org/1999/xlink" x="0px" y="0px"
	 viewBox="0 0 8193.8 1332.5" style="enable-background:new 0 0 8193.8 1332.5;" xml:space="preserve">
<style type="text/css">
	.st0{fill:url(#SVGID_1_);}
	.st1{fill:#ECE5DE;}
	.st2{fill:none;stroke:#D07A6F;stroke-width:8.5446;stroke-linecap:round;stroke-miterlimit:10;stroke-dasharray:8.5446,29.9062;}
</style>
<g>
	<linearGradient id="SVGID_1_" gradientUnits="userSpaceOnUse" x1="0" y1="749.389" x2="8192" y2="749.389">
		<stop  offset="0" style="stop-color:#95591E"/>
		<stop  offset="1" style="stop-color:#F0C982"/>
	</linearGradient>
	<path class="st0" d="M8192,1332.5V166.3c-500.3,352.9-1084,634.2-1792.2,705c-720,85.4-1505.8-46-2289.7-209.7
		c-783.9-163.7-1565.6-359.7-2276-406.5C1124.5,194.6,485.3,283.3,0,369.4v963.1H8192z"/>
	<g>
		<path class="st1" d="M8192,1332.5c-129.4-92.3-263.4-199.7-401.3-324.5c0,0-1172.5-1157.5-2983.2-750
			c0,0-2940.6,827.3-4807.4,549.7v524.7H8192z"/>
	</g>
	<path class="st2" d="M8189.5,662.2c-1422.2,534-4494.2-409.8-4494.2-409.8C1816.7-395,6.7,642.8,6.7,642.8"/>
</g>
</svg>
